<?xml version="1.0" encoding="iso-8859-1"?>
<!-- Generator: Adobe Illustrator 19.0.0, SVG Export Plug-In . SVG Version: 6.00 Build 0)  -->
<svg version="1.1" id="Layer_1" xmlns="http://www.w3.org/2000/svg" xmlns:xlink="http://www.w3.org/1999/xlink" x="0px" y="0px"
	 viewBox="0 0 480.008 480.008" style="enable-background:new 0 0 480.008 480.008;" xml:space="preserve">
<g>
	<g>
		<path d="M456.004,0.004h-136c-4.4,0-8,3.6-8,8s3.6,8,8,8h136c4.4,0,8,3.6,8,8v8h-120c-4.4,0-8,3.6-8,8s3.6,8,8,8h120v56h-104
			c-4.4,0-8,3.6-8,8c0,4.4,3.6,8,8,8h104v8c0,4.4-3.6,8-8,8h-104c-4.4,0-8,3.6-8,8c0,4.4,3.6,8,8,8h98.2l10.7,32h-4.9h-177.7
			c33.9-14.8,57.7-48.7,57.7-88c0-52.9-43.1-96-96-96c-52.9,0-96,43.1-96,96c0,39.3,23.8,73.2,57.7,88h-177.7h-4.9l10.7-32h106.2
			c4.4,0,8-3.6,8-8c0-4.4-3.6-8-8-8h-112c-4.4,0-8-3.6-8-8v-8h104c4.4,0,8-3.6,8-8c0-4.4-3.6-8-8-8h-104v-56h120c4.4,0,8-3.6,8-8
			s-3.6-8-8-8h-120v-8c0-4.4,3.6-8,8-8h144c4.4,0,8-3.6,8-8s-3.6-8-8-8h-144c-13.2,0-24,10.8-24,24v16v72v16
			c0,9.5,5.6,17.7,13.7,21.6l-13.3,39.9c-0.8,2.4-0.4,5.1,1.1,7.2c1.5,2.1,3.9,3.3,6.5,3.3h8v233.5c-9.3,3.3-16,12.1-16,22.5v16
			c0,4.4,3.6,8,8,8h464c4.4,0,8-3.6,8-8v-16c0-10.4-6.7-19.2-16-22.5v-233.5h8c2.6,0,5-1.2,6.5-3.3c1.5-2.1,1.9-4.8,1.1-7.2
			l-13.3-39.9c8.1-3.9,13.7-12.1,13.7-21.6v-16v-72v-16C480.004,10.804,469.204,0.004,456.004,0.004z M160.004,96.004
			c0-44.1,35.9-80,80-80c44.1,0,80,35.9,80,80s-35.9,80-80,80C195.904,176.004,160.004,140.104,160.004,96.004z M32.004,200.004h416
			v232h-160v-56v-32v-120c0-4.4-3.6-8-8-8h-80c-4.4,0-8,3.6-8,8v120v32v56h-160V200.004z M208.004,368.004v-16h64v16H208.004z
			 M272.004,384.004v48h-64v-48H272.004z M208.004,336.004v-104h64v104H208.004z M464.004,464.004h-448v-8c0-4.4,3.6-8,8-8h176h80
			h176c4.4,0,8,3.6,8,8V464.004z"/>
	</g>
</g>
<g>
	<g>
		<path d="M168.004,216.004h-112c-4.4,0-8,3.6-8,8v144v32c0,4.4,3.6,8,8,8h112c4.4,0,8-3.6,8-8v-32v-144
			C176.004,219.604,172.404,216.004,168.004,216.004z M160.004,392.004h-96v-16h96V392.004z M160.004,360.004h-96v-128h40v33.1
			c-13.8,3.6-24,16-24,30.9c0,4.4,3.6,8,8,8h48c4.4,0,8-3.6,8-8c0-14.9-10.2-27.3-24-30.9v-33.1h40V360.004z M112.004,280.004
			c5.9,0,11.1,3.2,13.8,8h-27.7C100.904,283.204,106.104,280.004,112.004,280.004z"/>
	</g>
</g>
<g>
	<g>
		<path d="M424.004,216.004h-112c-4.4,0-8,3.6-8,8v144v32c0,4.4,3.6,8,8,8h112c4.4,0,8-3.6,8-8v-32v-144
			C432.004,219.604,428.404,216.004,424.004,216.004z M416.004,392.004h-96v-16h96V392.004z M416.004,360.004h-96v-128h40v33.1
			c-13.8,3.6-24,16-24,30.9c0,4.4,3.6,8,8,8h48c4.4,0,8-3.6,8-8c0-14.9-10.2-27.3-24-30.9v-33.1h40V360.004z M368.004,280.004
			c5.9,0,11.1,3.2,13.8,8h-27.7C356.904,283.204,362.104,280.004,368.004,280.004z"/>
	</g>
</g>
<g>
	<g>
		<path d="M279.404,64.804c-3.4-18.6-19.8-32.8-39.4-32.8c-19.6,0-36,14.2-39.4,32.8c-14.1,3.3-24.6,16-24.6,31.2
			c0,14.9,10.2,27.4,24,31v25c0,4.4,3.6,8,8,8h64c4.4,0,8-3.6,8-8v-25c13.8-3.6,24-16.1,24-31
			C304.004,80.904,293.504,68.204,279.404,64.804z M272.004,112.004c-4.4,0-8,3.6-8,8v24h-48v-24c0-4.4-3.6-8-8-8
			c-8.8,0-16-7.2-16-16c0-8.3,6.3-15,14.4-15.8c10.3,5.3,10,12.9,9.8,14.5c-0.8,4.3,2.1,8.4,6.4,9.2c0.5,0.1,1,0.1,1.5,0.1
			c3.8,0,7.1-2.7,7.8-6.5c1.3-6.8-0.7-20.9-15.4-30c2.1-11.1,11.8-19.5,23.5-19.5c13.2,0,24,10.8,24,24c0,4.4,3.6,8,8,8
			c8.8,0,16,7.2,16,16S280.804,112.004,272.004,112.004z"/>
	</g>
</g>
<g>
</g>
<g>
</g>
<g>
</g>
<g>
</g>
<g>
</g>
<g>
</g>
<g>
</g>
<g>
</g>
<g>
</g>
<g>
</g>
<g>
</g>
<g>
</g>
<g>
</g>
<g>
</g>
<g>
</g>
</svg>
