<?xml version="1.0" encoding="iso-8859-1"?>
<!-- Generator: Adobe Illustrator 18.0.0, SVG Export Plug-In . SVG Version: 6.00 Build 0)  -->
<!DOCTYPE svg PUBLIC "-//W3C//DTD SVG 1.1//EN" "http://www.w3.org/Graphics/SVG/1.1/DTD/svg11.dtd">
<svg version="1.1" id="Capa_1" xmlns="http://www.w3.org/2000/svg" xmlns:xlink="http://www.w3.org/1999/xlink" x="0px" y="0px"
	 viewBox="0 0 57 57" style="enable-background:new 0 0 57 57;" xml:space="preserve">
<g>
	<path d="M44,30.001c-7.168,0-13,5.832-13,13s5.832,13,13,13s13-5.832,13-13S51.168,30.001,44,30.001z M44,54.001
		c-6.065,0-11-4.935-11-11s4.935-11,11-11s11,4.935,11,11S50.065,54.001,44,54.001z"/>
	<path d="M50,42.001H38c-0.552,0-1,0.447-1,1s0.448,1,1,1h12c0.552,0,1-0.447,1-1S50.552,42.001,50,42.001z"/>
	<path d="M28,43.001c0-6.31,3.681-11.762,9-14.365v-0.017c2.115-1.035,4.49-1.618,7-1.618c4.262,0,8.13,1.685,11,4.411V2.001
		c0-0.321-0.154-0.623-0.416-0.812s-0.597-0.241-0.901-0.137l-17.73,5.91L19.229,3.027c-0.076-0.018-0.152-0.026-0.228-0.026
		c-0.048,0-0.094,0.017-0.142,0.024c-0.026,0.004-0.051-0.006-0.076,0l-18,4C0.326,7.127,0,7.532,0,8.001v43
		c0,0.304,0.138,0.59,0.375,0.78c0.179,0.144,0.4,0.22,0.625,0.22c0.072,0,0.145-0.008,0.217-0.023l17.807-3.957l10.553,1.862
		C28.577,47.794,28,45.466,28,43.001z M20,46.161V5.263l15,3.529v18.643c-5.583,3.22-9,9.075-9,15.565
		c0,1.465,0.178,2.906,0.531,4.313L20,46.161z"/>
</g>
<g>
</g>
<g>
</g>
<g>
</g>
<g>
</g>
<g>
</g>
<g>
</g>
<g>
</g>
<g>
</g>
<g>
</g>
<g>
</g>
<g>
</g>
<g>
</g>
<g>
</g>
<g>
</g>
<g>
</g>
</svg>
